%TF.GenerationSoftware,KiCad,Pcbnew,(5.1.10)-1*%
%TF.CreationDate,2021-11-03T11:27:17+01:00*%
%TF.ProjectId,Telemetry,54656c65-6d65-4747-9279-2e6b69636164,rev?*%
%TF.SameCoordinates,Original*%
%TF.FileFunction,Paste,Top*%
%TF.FilePolarity,Positive*%
%FSLAX46Y46*%
G04 Gerber Fmt 4.6, Leading zero omitted, Abs format (unit mm)*
G04 Created by KiCad (PCBNEW (5.1.10)-1) date 2021-11-03 11:27:17*
%MOMM*%
%LPD*%
G01*
G04 APERTURE LIST*
%ADD10R,2.200000X1.200000*%
%ADD11R,1.400000X1.600000*%
%ADD12R,1.600000X0.700000*%
%ADD13R,1.400000X1.200000*%
%ADD14R,1.800000X1.600000*%
G04 APERTURE END LIST*
D10*
%TO.C,J5*%
X154630000Y-65910000D03*
X154630000Y-81410000D03*
D11*
X164230000Y-80510000D03*
D12*
X164730000Y-67110000D03*
D13*
X164230000Y-65910000D03*
D12*
X164730000Y-68210000D03*
X164730000Y-69310000D03*
X164730000Y-70410000D03*
X164730000Y-71510000D03*
X164730000Y-72610000D03*
X164730000Y-73710000D03*
X164730000Y-74810000D03*
X164730000Y-75910000D03*
%TD*%
D14*
%TO.C,Y1*%
X189590000Y-84230000D03*
X189590000Y-79150000D03*
X193790000Y-79150000D03*
X193790000Y-84230000D03*
%TD*%
%TO.C,C5*%
G36*
G01*
X191320000Y-74455000D02*
X191320000Y-75405000D01*
G75*
G02*
X191070000Y-75655000I-250000J0D01*
G01*
X190570000Y-75655000D01*
G75*
G02*
X190320000Y-75405000I0J250000D01*
G01*
X190320000Y-74455000D01*
G75*
G02*
X190570000Y-74205000I250000J0D01*
G01*
X191070000Y-74205000D01*
G75*
G02*
X191320000Y-74455000I0J-250000D01*
G01*
G37*
G36*
G01*
X193220000Y-74455000D02*
X193220000Y-75405000D01*
G75*
G02*
X192970000Y-75655000I-250000J0D01*
G01*
X192470000Y-75655000D01*
G75*
G02*
X192220000Y-75405000I0J250000D01*
G01*
X192220000Y-74455000D01*
G75*
G02*
X192470000Y-74205000I250000J0D01*
G01*
X192970000Y-74205000D01*
G75*
G02*
X193220000Y-74455000I0J-250000D01*
G01*
G37*
%TD*%
%TO.C,R2*%
G36*
G01*
X195710000Y-65220400D02*
X195710000Y-64319600D01*
G75*
G02*
X195959600Y-64070000I249600J0D01*
G01*
X196660400Y-64070000D01*
G75*
G02*
X196910000Y-64319600I0J-249600D01*
G01*
X196910000Y-65220400D01*
G75*
G02*
X196660400Y-65470000I-249600J0D01*
G01*
X195959600Y-65470000D01*
G75*
G02*
X195710000Y-65220400I0J249600D01*
G01*
G37*
G36*
G01*
X193710000Y-65220400D02*
X193710000Y-64319600D01*
G75*
G02*
X193959600Y-64070000I249600J0D01*
G01*
X194660400Y-64070000D01*
G75*
G02*
X194910000Y-64319600I0J-249600D01*
G01*
X194910000Y-65220400D01*
G75*
G02*
X194660400Y-65470000I-249600J0D01*
G01*
X193959600Y-65470000D01*
G75*
G02*
X193710000Y-65220400I0J249600D01*
G01*
G37*
%TD*%
%TO.C,C1*%
G36*
G01*
X151264600Y-86093600D02*
X152214600Y-86093600D01*
G75*
G02*
X152464600Y-86343600I0J-250000D01*
G01*
X152464600Y-86843600D01*
G75*
G02*
X152214600Y-87093600I-250000J0D01*
G01*
X151264600Y-87093600D01*
G75*
G02*
X151014600Y-86843600I0J250000D01*
G01*
X151014600Y-86343600D01*
G75*
G02*
X151264600Y-86093600I250000J0D01*
G01*
G37*
G36*
G01*
X151264600Y-87993600D02*
X152214600Y-87993600D01*
G75*
G02*
X152464600Y-88243600I0J-250000D01*
G01*
X152464600Y-88743600D01*
G75*
G02*
X152214600Y-88993600I-250000J0D01*
G01*
X151264600Y-88993600D01*
G75*
G02*
X151014600Y-88743600I0J250000D01*
G01*
X151014600Y-88243600D01*
G75*
G02*
X151264600Y-87993600I250000J0D01*
G01*
G37*
%TD*%
%TO.C,C3*%
G36*
G01*
X153170000Y-61435000D02*
X153170000Y-60485000D01*
G75*
G02*
X153420000Y-60235000I250000J0D01*
G01*
X153920000Y-60235000D01*
G75*
G02*
X154170000Y-60485000I0J-250000D01*
G01*
X154170000Y-61435000D01*
G75*
G02*
X153920000Y-61685000I-250000J0D01*
G01*
X153420000Y-61685000D01*
G75*
G02*
X153170000Y-61435000I0J250000D01*
G01*
G37*
G36*
G01*
X151270000Y-61435000D02*
X151270000Y-60485000D01*
G75*
G02*
X151520000Y-60235000I250000J0D01*
G01*
X152020000Y-60235000D01*
G75*
G02*
X152270000Y-60485000I0J-250000D01*
G01*
X152270000Y-61435000D01*
G75*
G02*
X152020000Y-61685000I-250000J0D01*
G01*
X151520000Y-61685000D01*
G75*
G02*
X151270000Y-61435000I0J250000D01*
G01*
G37*
%TD*%
%TO.C,C2*%
G36*
G01*
X197045200Y-53779400D02*
X197045200Y-54729400D01*
G75*
G02*
X196795200Y-54979400I-250000J0D01*
G01*
X196295200Y-54979400D01*
G75*
G02*
X196045200Y-54729400I0J250000D01*
G01*
X196045200Y-53779400D01*
G75*
G02*
X196295200Y-53529400I250000J0D01*
G01*
X196795200Y-53529400D01*
G75*
G02*
X197045200Y-53779400I0J-250000D01*
G01*
G37*
G36*
G01*
X198945200Y-53779400D02*
X198945200Y-54729400D01*
G75*
G02*
X198695200Y-54979400I-250000J0D01*
G01*
X198195200Y-54979400D01*
G75*
G02*
X197945200Y-54729400I0J250000D01*
G01*
X197945200Y-53779400D01*
G75*
G02*
X198195200Y-53529400I250000J0D01*
G01*
X198695200Y-53529400D01*
G75*
G02*
X198945200Y-53779400I0J-250000D01*
G01*
G37*
%TD*%
%TO.C,D1*%
G36*
G01*
X205045000Y-69399999D02*
X205045000Y-70300001D01*
G75*
G02*
X204795001Y-70550000I-249999J0D01*
G01*
X204144999Y-70550000D01*
G75*
G02*
X203895000Y-70300001I0J249999D01*
G01*
X203895000Y-69399999D01*
G75*
G02*
X204144999Y-69150000I249999J0D01*
G01*
X204795001Y-69150000D01*
G75*
G02*
X205045000Y-69399999I0J-249999D01*
G01*
G37*
G36*
G01*
X202995000Y-69399999D02*
X202995000Y-70300001D01*
G75*
G02*
X202745001Y-70550000I-249999J0D01*
G01*
X202094999Y-70550000D01*
G75*
G02*
X201845000Y-70300001I0J249999D01*
G01*
X201845000Y-69399999D01*
G75*
G02*
X202094999Y-69150000I249999J0D01*
G01*
X202745001Y-69150000D01*
G75*
G02*
X202995000Y-69399999I0J-249999D01*
G01*
G37*
%TD*%
%TO.C,D2*%
G36*
G01*
X202995000Y-64319999D02*
X202995000Y-65220001D01*
G75*
G02*
X202745001Y-65470000I-249999J0D01*
G01*
X202094999Y-65470000D01*
G75*
G02*
X201845000Y-65220001I0J249999D01*
G01*
X201845000Y-64319999D01*
G75*
G02*
X202094999Y-64070000I249999J0D01*
G01*
X202745001Y-64070000D01*
G75*
G02*
X202995000Y-64319999I0J-249999D01*
G01*
G37*
G36*
G01*
X205045000Y-64319999D02*
X205045000Y-65220001D01*
G75*
G02*
X204795001Y-65470000I-249999J0D01*
G01*
X204144999Y-65470000D01*
G75*
G02*
X203895000Y-65220001I0J249999D01*
G01*
X203895000Y-64319999D01*
G75*
G02*
X204144999Y-64070000I249999J0D01*
G01*
X204795001Y-64070000D01*
G75*
G02*
X205045000Y-64319999I0J-249999D01*
G01*
G37*
%TD*%
%TO.C,D3*%
G36*
G01*
X205045000Y-59239999D02*
X205045000Y-60140001D01*
G75*
G02*
X204795001Y-60390000I-249999J0D01*
G01*
X204144999Y-60390000D01*
G75*
G02*
X203895000Y-60140001I0J249999D01*
G01*
X203895000Y-59239999D01*
G75*
G02*
X204144999Y-58990000I249999J0D01*
G01*
X204795001Y-58990000D01*
G75*
G02*
X205045000Y-59239999I0J-249999D01*
G01*
G37*
G36*
G01*
X202995000Y-59239999D02*
X202995000Y-60140001D01*
G75*
G02*
X202745001Y-60390000I-249999J0D01*
G01*
X202094999Y-60390000D01*
G75*
G02*
X201845000Y-60140001I0J249999D01*
G01*
X201845000Y-59239999D01*
G75*
G02*
X202094999Y-58990000I249999J0D01*
G01*
X202745001Y-58990000D01*
G75*
G02*
X202995000Y-59239999I0J-249999D01*
G01*
G37*
%TD*%
%TO.C,R1*%
G36*
G01*
X193710000Y-70300400D02*
X193710000Y-69399600D01*
G75*
G02*
X193959600Y-69150000I249600J0D01*
G01*
X194660400Y-69150000D01*
G75*
G02*
X194910000Y-69399600I0J-249600D01*
G01*
X194910000Y-70300400D01*
G75*
G02*
X194660400Y-70550000I-249600J0D01*
G01*
X193959600Y-70550000D01*
G75*
G02*
X193710000Y-70300400I0J249600D01*
G01*
G37*
G36*
G01*
X195710000Y-70300400D02*
X195710000Y-69399600D01*
G75*
G02*
X195959600Y-69150000I249600J0D01*
G01*
X196660400Y-69150000D01*
G75*
G02*
X196910000Y-69399600I0J-249600D01*
G01*
X196910000Y-70300400D01*
G75*
G02*
X196660400Y-70550000I-249600J0D01*
G01*
X195959600Y-70550000D01*
G75*
G02*
X195710000Y-70300400I0J249600D01*
G01*
G37*
%TD*%
%TO.C,R3*%
G36*
G01*
X193710000Y-60140400D02*
X193710000Y-59239600D01*
G75*
G02*
X193959600Y-58990000I249600J0D01*
G01*
X194660400Y-58990000D01*
G75*
G02*
X194910000Y-59239600I0J-249600D01*
G01*
X194910000Y-60140400D01*
G75*
G02*
X194660400Y-60390000I-249600J0D01*
G01*
X193959600Y-60390000D01*
G75*
G02*
X193710000Y-60140400I0J249600D01*
G01*
G37*
G36*
G01*
X195710000Y-60140400D02*
X195710000Y-59239600D01*
G75*
G02*
X195959600Y-58990000I249600J0D01*
G01*
X196660400Y-58990000D01*
G75*
G02*
X196910000Y-59239600I0J-249600D01*
G01*
X196910000Y-60140400D01*
G75*
G02*
X196660400Y-60390000I-249600J0D01*
G01*
X195959600Y-60390000D01*
G75*
G02*
X195710000Y-60140400I0J249600D01*
G01*
G37*
%TD*%
%TO.C,C4*%
G36*
G01*
X196375000Y-81420000D02*
X197325000Y-81420000D01*
G75*
G02*
X197575000Y-81670000I0J-250000D01*
G01*
X197575000Y-82170000D01*
G75*
G02*
X197325000Y-82420000I-250000J0D01*
G01*
X196375000Y-82420000D01*
G75*
G02*
X196125000Y-82170000I0J250000D01*
G01*
X196125000Y-81670000D01*
G75*
G02*
X196375000Y-81420000I250000J0D01*
G01*
G37*
G36*
G01*
X196375000Y-83320000D02*
X197325000Y-83320000D01*
G75*
G02*
X197575000Y-83570000I0J-250000D01*
G01*
X197575000Y-84070000D01*
G75*
G02*
X197325000Y-84320000I-250000J0D01*
G01*
X196375000Y-84320000D01*
G75*
G02*
X196125000Y-84070000I0J250000D01*
G01*
X196125000Y-83570000D01*
G75*
G02*
X196375000Y-83320000I250000J0D01*
G01*
G37*
%TD*%
M02*
