M48
; DRILL file {KiCad (5.1.10)-1} date 11/03/21 11:27:09
; FORMAT={-:-/ absolute / inch / decimal}
; #@! TF.CreationDate,2021-11-03T11:27:09+01:00
; #@! TF.GenerationSoftware,Kicad,Pcbnew,(5.1.10)-1
; #@! TF.FileFunction,Plated,1,2,PTH
FMAT,2
INCH
T1C0.0157
T2C0.0300
T3C0.0394
T4C0.0512
%
G90
G05
T1
X6.5Y-3.1
X6.55Y-2.85
X6.9Y-3.0
X7.5Y-2.55
X7.5Y-2.75
X7.55Y-2.35
X7.75Y-3.4
X7.8732Y-2.1732
T2
X6.082Y-3.4
X6.082Y-3.5
X6.182Y-3.4
X6.182Y-3.5
X6.282Y-3.4
X6.282Y-3.5
X6.382Y-3.4
X6.382Y-3.5
T3
X5.98Y-2.0575
X6.072Y-2.7051
X6.072Y-3.0201
X6.4825Y-2.0575
X6.645Y-2.11
X6.645Y-2.21
X6.645Y-2.31
X6.645Y-2.41
X6.645Y-2.51
X6.645Y-2.61
X6.645Y-2.71
X6.645Y-2.81
X6.645Y-2.91
X6.645Y-3.01
X6.645Y-3.11
X6.645Y-3.21
X6.645Y-3.31
X6.645Y-3.41
X6.645Y-3.51
X7.245Y-2.11
X7.245Y-2.21
X7.245Y-2.31
X7.245Y-2.41
X7.245Y-2.51
X7.245Y-2.61
X7.245Y-2.71
X7.245Y-2.81
X7.245Y-2.91
X7.245Y-3.01
X7.245Y-3.11
X7.245Y-3.21
X7.245Y-3.31
X7.245Y-3.41
X7.245Y-3.51
X7.485Y-2.005
X7.585Y-2.005
X7.685Y-2.005
X7.785Y-2.005
T4
X7.5031Y-3.6
X7.7Y-3.6
T0
M30
