%TF.GenerationSoftware,KiCad,Pcbnew,(5.1.10)-1*%
%TF.CreationDate,2021-11-03T11:27:17+01:00*%
%TF.ProjectId,Telemetry,54656c65-6d65-4747-9279-2e6b69636164,rev?*%
%TF.SameCoordinates,Original*%
%TF.FileFunction,Copper,L1,Top*%
%TF.FilePolarity,Positive*%
%FSLAX46Y46*%
G04 Gerber Fmt 4.6, Leading zero omitted, Abs format (unit mm)*
G04 Created by KiCad (PCBNEW (5.1.10)-1) date 2021-11-03 11:27:17*
%MOMM*%
%LPD*%
G01*
G04 APERTURE LIST*
%TA.AperFunction,SMDPad,CuDef*%
%ADD10R,2.200000X1.200000*%
%TD*%
%TA.AperFunction,SMDPad,CuDef*%
%ADD11R,1.400000X1.600000*%
%TD*%
%TA.AperFunction,ComponentPad*%
%ADD12C,0.500000*%
%TD*%
%TA.AperFunction,SMDPad,CuDef*%
%ADD13R,1.600000X0.700000*%
%TD*%
%TA.AperFunction,SMDPad,CuDef*%
%ADD14R,1.400000X1.200000*%
%TD*%
%TA.AperFunction,ComponentPad*%
%ADD15R,1.700000X1.700000*%
%TD*%
%TA.AperFunction,ComponentPad*%
%ADD16O,1.700000X1.700000*%
%TD*%
%TA.AperFunction,SMDPad,CuDef*%
%ADD17R,1.800000X1.600000*%
%TD*%
%TA.AperFunction,ComponentPad*%
%ADD18R,2.500000X2.500000*%
%TD*%
%TA.AperFunction,ComponentPad*%
%ADD19C,2.500000*%
%TD*%
%TA.AperFunction,ComponentPad*%
%ADD20R,1.600000X1.600000*%
%TD*%
%TA.AperFunction,ComponentPad*%
%ADD21O,1.600000X1.600000*%
%TD*%
%TA.AperFunction,ComponentPad*%
%ADD22C,1.524000*%
%TD*%
%TA.AperFunction,ComponentPad*%
%ADD23R,1.524000X1.524000*%
%TD*%
%TA.AperFunction,ViaPad*%
%ADD24C,0.800000*%
%TD*%
%TA.AperFunction,Conductor*%
%ADD25C,0.355600*%
%TD*%
G04 APERTURE END LIST*
D10*
%TO.P,J5,MP3*%
%TO.N,Net-(J5-PadMP3)*%
X154630000Y-65910000D03*
%TO.P,J5,MP2*%
%TO.N,Net-(J5-PadMP2)*%
X154630000Y-81410000D03*
D11*
%TO.P,J5,MP1*%
%TO.N,Net-(J5-PadMP1)*%
X164230000Y-80510000D03*
D12*
%TO.P,J5,MH2*%
%TO.N,N/C*%
X154230000Y-68710000D03*
%TO.P,J5,MH1*%
X154230000Y-76710000D03*
D13*
%TO.P,J5,CD1*%
%TO.N,Net-(J5-PadCD1)*%
X164730000Y-67110000D03*
D14*
%TO.P,J5,G1*%
%TO.N,GND*%
X164230000Y-65910000D03*
D13*
%TO.P,J5,8*%
%TO.N,Net-(J5-Pad8)*%
X164730000Y-68210000D03*
%TO.P,J5,7*%
%TO.N,Net-(J5-Pad7)*%
X164730000Y-69310000D03*
%TO.P,J5,6*%
%TO.N,GND*%
X164730000Y-70410000D03*
%TO.P,J5,5*%
%TO.N,Net-(J5-Pad5)*%
X164730000Y-71510000D03*
%TO.P,J5,4*%
%TO.N,+3V3*%
X164730000Y-72610000D03*
%TO.P,J5,3*%
%TO.N,Net-(J5-Pad3)*%
X164730000Y-73710000D03*
%TO.P,J5,2*%
%TO.N,Net-(J5-Pad2)*%
X164730000Y-74810000D03*
%TO.P,J5,1*%
%TO.N,Net-(J5-Pad1)*%
X164730000Y-75910000D03*
%TD*%
D15*
%TO.P,U3,3.3V*%
%TO.N,+3V3*%
X197739000Y-50927000D03*
D16*
%TO.P,U3,GND*%
%TO.N,GND*%
X195199000Y-50927000D03*
%TO.P,U3,CAN_RX*%
%TO.N,Net-(U1-PadD10)*%
X192659000Y-50927000D03*
%TO.P,U3,CAN_TX*%
%TO.N,Net-(U1-PadD2)*%
X190119000Y-50927000D03*
%TD*%
D17*
%TO.P,Y1,4*%
%TO.N,+3V3*%
X189590000Y-84230000D03*
%TO.P,Y1,3*%
%TO.N,Net-(C5-Pad2)*%
X189590000Y-79150000D03*
%TO.P,Y1,2*%
%TO.N,GND*%
X193790000Y-79150000D03*
%TO.P,Y1,1*%
%TO.N,Net-(Y1-Pad1)*%
X193790000Y-84230000D03*
%TD*%
%TO.P,C5,2*%
%TO.N,Net-(C5-Pad2)*%
%TA.AperFunction,SMDPad,CuDef*%
G36*
G01*
X191320000Y-74455000D02*
X191320000Y-75405000D01*
G75*
G02*
X191070000Y-75655000I-250000J0D01*
G01*
X190570000Y-75655000D01*
G75*
G02*
X190320000Y-75405000I0J250000D01*
G01*
X190320000Y-74455000D01*
G75*
G02*
X190570000Y-74205000I250000J0D01*
G01*
X191070000Y-74205000D01*
G75*
G02*
X191320000Y-74455000I0J-250000D01*
G01*
G37*
%TD.AperFunction*%
%TO.P,C5,1*%
%TO.N,GND*%
%TA.AperFunction,SMDPad,CuDef*%
G36*
G01*
X193220000Y-74455000D02*
X193220000Y-75405000D01*
G75*
G02*
X192970000Y-75655000I-250000J0D01*
G01*
X192470000Y-75655000D01*
G75*
G02*
X192220000Y-75405000I0J250000D01*
G01*
X192220000Y-74455000D01*
G75*
G02*
X192470000Y-74205000I250000J0D01*
G01*
X192970000Y-74205000D01*
G75*
G02*
X193220000Y-74455000I0J-250000D01*
G01*
G37*
%TD.AperFunction*%
%TD*%
D18*
%TO.P,U2,OUT-*%
%TO.N,GND*%
X195580000Y-91440000D03*
D19*
%TO.P,U2,OUT+*%
%TO.N,Net-(U1-Pad1)*%
X190580000Y-91440000D03*
%TD*%
%TO.P,R2,2*%
%TO.N,Net-(D2-Pad2)*%
%TA.AperFunction,SMDPad,CuDef*%
G36*
G01*
X195710000Y-65220400D02*
X195710000Y-64319600D01*
G75*
G02*
X195959600Y-64070000I249600J0D01*
G01*
X196660400Y-64070000D01*
G75*
G02*
X196910000Y-64319600I0J-249600D01*
G01*
X196910000Y-65220400D01*
G75*
G02*
X196660400Y-65470000I-249600J0D01*
G01*
X195959600Y-65470000D01*
G75*
G02*
X195710000Y-65220400I0J249600D01*
G01*
G37*
%TD.AperFunction*%
%TO.P,R2,1*%
%TO.N,Net-(R2-Pad1)*%
%TA.AperFunction,SMDPad,CuDef*%
G36*
G01*
X193710000Y-65220400D02*
X193710000Y-64319600D01*
G75*
G02*
X193959600Y-64070000I249600J0D01*
G01*
X194660400Y-64070000D01*
G75*
G02*
X194910000Y-64319600I0J-249600D01*
G01*
X194910000Y-65220400D01*
G75*
G02*
X194660400Y-65470000I-249600J0D01*
G01*
X193959600Y-65470000D01*
G75*
G02*
X193710000Y-65220400I0J249600D01*
G01*
G37*
%TD.AperFunction*%
%TD*%
D15*
%TO.P, ,1*%
%TO.N,N/C*%
X151892000Y-52260500D03*
%TD*%
%TO.P, ,1*%
%TO.N,N/C*%
X164655500Y-52260500D03*
%TD*%
D20*
%TO.P,U1,D13*%
%TO.N,Net-(U1-PadD13)*%
X168783000Y-53594000D03*
D21*
%TO.P,U1,D0*%
%TO.N,Net-(U1-PadD0)*%
X184023000Y-86614000D03*
%TO.P,U1,14*%
%TO.N,+3V3*%
X168783000Y-56134000D03*
%TO.P,U1,NRST*%
%TO.N,Net-(U1-PadNRST)*%
X184023000Y-84074000D03*
%TO.P,U1,AREF*%
%TO.N,Net-(U1-PadAREF)*%
X168783000Y-58674000D03*
%TO.P,U1,GND*%
%TO.N,Net-(U1-PadGND)*%
X184023000Y-81534000D03*
%TO.P,U1,A0*%
%TO.N,Net-(C5-Pad2)*%
X168783000Y-61214000D03*
%TO.P,U1,D2*%
%TO.N,Net-(U1-PadD2)*%
X184023000Y-78994000D03*
%TO.P,U1,A1*%
%TO.N,Net-(J5-Pad5)*%
X168783000Y-63754000D03*
%TO.P,U1,D3*%
%TO.N,Net-(J5-Pad2)*%
X184023000Y-76454000D03*
%TO.P,U1,A2*%
%TO.N,Net-(U1-PadA2)*%
X168783000Y-66294000D03*
%TO.P,U1,D4*%
%TO.N,Net-(U1-PadD4)*%
X184023000Y-73914000D03*
%TO.P,U1,A3*%
%TO.N,Net-(U1-PadA3)*%
X168783000Y-68834000D03*
%TO.P,U1,D5*%
%TO.N,Net-(R1-Pad1)*%
X184023000Y-71374000D03*
%TO.P,U1,A4*%
%TO.N,Net-(U1-PadA4)*%
X168783000Y-71374000D03*
%TO.P,U1,D6*%
%TO.N,Net-(R2-Pad1)*%
X184023000Y-68834000D03*
%TO.P,U1,A5*%
%TO.N,Net-(J5-Pad7)*%
X168783000Y-73914000D03*
%TO.P,U1,D7*%
%TO.N,Net-(R3-Pad1)*%
X184023000Y-66294000D03*
%TO.P,U1,A6*%
%TO.N,Net-(J5-Pad3)*%
X168783000Y-76454000D03*
%TO.P,U1,D8*%
%TO.N,Net-(U1-PadD8)*%
X184023000Y-63754000D03*
%TO.P,U1,A7*%
%TO.N,Net-(U1-PadA7)*%
X168783000Y-78994000D03*
%TO.P,U1,D9*%
%TO.N,Net-(U1-PadD9)*%
X184023000Y-61214000D03*
%TO.P,U1,4*%
%TO.N,Net-(U1-Pad4)*%
X168783000Y-81534000D03*
%TO.P,U1,D10*%
%TO.N,Net-(U1-PadD10)*%
X184023000Y-58674000D03*
%TO.P,U1,3*%
%TO.N,Net-(U1-Pad3)*%
X168783000Y-84074000D03*
%TO.P,U1,D11*%
%TO.N,Net-(U1-PadD11)*%
X184023000Y-56134000D03*
%TO.P,U1,2*%
%TO.N,GND*%
X168783000Y-86614000D03*
%TO.P,U1,D12*%
%TO.N,Net-(U1-PadD12)*%
X184023000Y-53594000D03*
%TO.P,U1,1*%
%TO.N,Net-(U1-Pad1)*%
X168783000Y-89154000D03*
%TO.P,U1,D1*%
%TO.N,Net-(U1-PadD1)*%
X184023000Y-89154000D03*
%TD*%
D22*
%TO.P,U4,8*%
%TO.N,Net-(U1-PadD9)*%
X162102800Y-86360000D03*
%TO.P,U4,7*%
%TO.N,Net-(U1-PadD12)*%
X162102800Y-88900000D03*
%TO.P,U4,6*%
%TO.N,Net-(U1-PadD11)*%
X159562800Y-86360000D03*
%TO.P,U4,5*%
%TO.N,Net-(U1-PadD13)*%
X159562800Y-88900000D03*
%TO.P,U4,4*%
%TO.N,Net-(U1-PadA3)*%
X157022800Y-86360000D03*
%TO.P,U4,3*%
%TO.N,Net-(U1-PadA2)*%
X157022800Y-88900000D03*
%TO.P,U4,2*%
%TO.N,+3V3*%
X154482800Y-86360000D03*
D23*
%TO.P,U4,1*%
%TO.N,GND*%
X154482800Y-88900000D03*
%TD*%
%TO.P,C1,1*%
%TO.N,+3V3*%
%TA.AperFunction,SMDPad,CuDef*%
G36*
G01*
X151264600Y-86093600D02*
X152214600Y-86093600D01*
G75*
G02*
X152464600Y-86343600I0J-250000D01*
G01*
X152464600Y-86843600D01*
G75*
G02*
X152214600Y-87093600I-250000J0D01*
G01*
X151264600Y-87093600D01*
G75*
G02*
X151014600Y-86843600I0J250000D01*
G01*
X151014600Y-86343600D01*
G75*
G02*
X151264600Y-86093600I250000J0D01*
G01*
G37*
%TD.AperFunction*%
%TO.P,C1,2*%
%TO.N,GND*%
%TA.AperFunction,SMDPad,CuDef*%
G36*
G01*
X151264600Y-87993600D02*
X152214600Y-87993600D01*
G75*
G02*
X152464600Y-88243600I0J-250000D01*
G01*
X152464600Y-88743600D01*
G75*
G02*
X152214600Y-88993600I-250000J0D01*
G01*
X151264600Y-88993600D01*
G75*
G02*
X151014600Y-88743600I0J250000D01*
G01*
X151014600Y-88243600D01*
G75*
G02*
X151264600Y-87993600I250000J0D01*
G01*
G37*
%TD.AperFunction*%
%TD*%
%TO.P,C3,2*%
%TO.N,+3V3*%
%TA.AperFunction,SMDPad,CuDef*%
G36*
G01*
X153170000Y-61435000D02*
X153170000Y-60485000D01*
G75*
G02*
X153420000Y-60235000I250000J0D01*
G01*
X153920000Y-60235000D01*
G75*
G02*
X154170000Y-60485000I0J-250000D01*
G01*
X154170000Y-61435000D01*
G75*
G02*
X153920000Y-61685000I-250000J0D01*
G01*
X153420000Y-61685000D01*
G75*
G02*
X153170000Y-61435000I0J250000D01*
G01*
G37*
%TD.AperFunction*%
%TO.P,C3,1*%
%TO.N,GND*%
%TA.AperFunction,SMDPad,CuDef*%
G36*
G01*
X151270000Y-61435000D02*
X151270000Y-60485000D01*
G75*
G02*
X151520000Y-60235000I250000J0D01*
G01*
X152020000Y-60235000D01*
G75*
G02*
X152270000Y-60485000I0J-250000D01*
G01*
X152270000Y-61435000D01*
G75*
G02*
X152020000Y-61685000I-250000J0D01*
G01*
X151520000Y-61685000D01*
G75*
G02*
X151270000Y-61435000I0J250000D01*
G01*
G37*
%TD.AperFunction*%
%TD*%
%TO.P,C2,2*%
%TO.N,GND*%
%TA.AperFunction,SMDPad,CuDef*%
G36*
G01*
X197045200Y-53779400D02*
X197045200Y-54729400D01*
G75*
G02*
X196795200Y-54979400I-250000J0D01*
G01*
X196295200Y-54979400D01*
G75*
G02*
X196045200Y-54729400I0J250000D01*
G01*
X196045200Y-53779400D01*
G75*
G02*
X196295200Y-53529400I250000J0D01*
G01*
X196795200Y-53529400D01*
G75*
G02*
X197045200Y-53779400I0J-250000D01*
G01*
G37*
%TD.AperFunction*%
%TO.P,C2,1*%
%TO.N,+3V3*%
%TA.AperFunction,SMDPad,CuDef*%
G36*
G01*
X198945200Y-53779400D02*
X198945200Y-54729400D01*
G75*
G02*
X198695200Y-54979400I-250000J0D01*
G01*
X198195200Y-54979400D01*
G75*
G02*
X197945200Y-54729400I0J250000D01*
G01*
X197945200Y-53779400D01*
G75*
G02*
X198195200Y-53529400I250000J0D01*
G01*
X198695200Y-53529400D01*
G75*
G02*
X198945200Y-53779400I0J-250000D01*
G01*
G37*
%TD.AperFunction*%
%TD*%
%TO.P,D1,1*%
%TO.N,GND*%
%TA.AperFunction,SMDPad,CuDef*%
G36*
G01*
X205045000Y-69399999D02*
X205045000Y-70300001D01*
G75*
G02*
X204795001Y-70550000I-249999J0D01*
G01*
X204144999Y-70550000D01*
G75*
G02*
X203895000Y-70300001I0J249999D01*
G01*
X203895000Y-69399999D01*
G75*
G02*
X204144999Y-69150000I249999J0D01*
G01*
X204795001Y-69150000D01*
G75*
G02*
X205045000Y-69399999I0J-249999D01*
G01*
G37*
%TD.AperFunction*%
%TO.P,D1,2*%
%TO.N,Net-(D1-Pad2)*%
%TA.AperFunction,SMDPad,CuDef*%
G36*
G01*
X202995000Y-69399999D02*
X202995000Y-70300001D01*
G75*
G02*
X202745001Y-70550000I-249999J0D01*
G01*
X202094999Y-70550000D01*
G75*
G02*
X201845000Y-70300001I0J249999D01*
G01*
X201845000Y-69399999D01*
G75*
G02*
X202094999Y-69150000I249999J0D01*
G01*
X202745001Y-69150000D01*
G75*
G02*
X202995000Y-69399999I0J-249999D01*
G01*
G37*
%TD.AperFunction*%
%TD*%
%TO.P,D2,2*%
%TO.N,Net-(D2-Pad2)*%
%TA.AperFunction,SMDPad,CuDef*%
G36*
G01*
X202995000Y-64319999D02*
X202995000Y-65220001D01*
G75*
G02*
X202745001Y-65470000I-249999J0D01*
G01*
X202094999Y-65470000D01*
G75*
G02*
X201845000Y-65220001I0J249999D01*
G01*
X201845000Y-64319999D01*
G75*
G02*
X202094999Y-64070000I249999J0D01*
G01*
X202745001Y-64070000D01*
G75*
G02*
X202995000Y-64319999I0J-249999D01*
G01*
G37*
%TD.AperFunction*%
%TO.P,D2,1*%
%TO.N,GND*%
%TA.AperFunction,SMDPad,CuDef*%
G36*
G01*
X205045000Y-64319999D02*
X205045000Y-65220001D01*
G75*
G02*
X204795001Y-65470000I-249999J0D01*
G01*
X204144999Y-65470000D01*
G75*
G02*
X203895000Y-65220001I0J249999D01*
G01*
X203895000Y-64319999D01*
G75*
G02*
X204144999Y-64070000I249999J0D01*
G01*
X204795001Y-64070000D01*
G75*
G02*
X205045000Y-64319999I0J-249999D01*
G01*
G37*
%TD.AperFunction*%
%TD*%
%TO.P,D3,1*%
%TO.N,GND*%
%TA.AperFunction,SMDPad,CuDef*%
G36*
G01*
X205045000Y-59239999D02*
X205045000Y-60140001D01*
G75*
G02*
X204795001Y-60390000I-249999J0D01*
G01*
X204144999Y-60390000D01*
G75*
G02*
X203895000Y-60140001I0J249999D01*
G01*
X203895000Y-59239999D01*
G75*
G02*
X204144999Y-58990000I249999J0D01*
G01*
X204795001Y-58990000D01*
G75*
G02*
X205045000Y-59239999I0J-249999D01*
G01*
G37*
%TD.AperFunction*%
%TO.P,D3,2*%
%TO.N,Net-(D3-Pad2)*%
%TA.AperFunction,SMDPad,CuDef*%
G36*
G01*
X202995000Y-59239999D02*
X202995000Y-60140001D01*
G75*
G02*
X202745001Y-60390000I-249999J0D01*
G01*
X202094999Y-60390000D01*
G75*
G02*
X201845000Y-60140001I0J249999D01*
G01*
X201845000Y-59239999D01*
G75*
G02*
X202094999Y-58990000I249999J0D01*
G01*
X202745001Y-58990000D01*
G75*
G02*
X202995000Y-59239999I0J-249999D01*
G01*
G37*
%TD.AperFunction*%
%TD*%
%TO.P,R1,1*%
%TO.N,Net-(R1-Pad1)*%
%TA.AperFunction,SMDPad,CuDef*%
G36*
G01*
X193710000Y-70300400D02*
X193710000Y-69399600D01*
G75*
G02*
X193959600Y-69150000I249600J0D01*
G01*
X194660400Y-69150000D01*
G75*
G02*
X194910000Y-69399600I0J-249600D01*
G01*
X194910000Y-70300400D01*
G75*
G02*
X194660400Y-70550000I-249600J0D01*
G01*
X193959600Y-70550000D01*
G75*
G02*
X193710000Y-70300400I0J249600D01*
G01*
G37*
%TD.AperFunction*%
%TO.P,R1,2*%
%TO.N,Net-(D1-Pad2)*%
%TA.AperFunction,SMDPad,CuDef*%
G36*
G01*
X195710000Y-70300400D02*
X195710000Y-69399600D01*
G75*
G02*
X195959600Y-69150000I249600J0D01*
G01*
X196660400Y-69150000D01*
G75*
G02*
X196910000Y-69399600I0J-249600D01*
G01*
X196910000Y-70300400D01*
G75*
G02*
X196660400Y-70550000I-249600J0D01*
G01*
X195959600Y-70550000D01*
G75*
G02*
X195710000Y-70300400I0J249600D01*
G01*
G37*
%TD.AperFunction*%
%TD*%
%TO.P,R3,1*%
%TO.N,Net-(R3-Pad1)*%
%TA.AperFunction,SMDPad,CuDef*%
G36*
G01*
X193710000Y-60140400D02*
X193710000Y-59239600D01*
G75*
G02*
X193959600Y-58990000I249600J0D01*
G01*
X194660400Y-58990000D01*
G75*
G02*
X194910000Y-59239600I0J-249600D01*
G01*
X194910000Y-60140400D01*
G75*
G02*
X194660400Y-60390000I-249600J0D01*
G01*
X193959600Y-60390000D01*
G75*
G02*
X193710000Y-60140400I0J249600D01*
G01*
G37*
%TD.AperFunction*%
%TO.P,R3,2*%
%TO.N,Net-(D3-Pad2)*%
%TA.AperFunction,SMDPad,CuDef*%
G36*
G01*
X195710000Y-60140400D02*
X195710000Y-59239600D01*
G75*
G02*
X195959600Y-58990000I249600J0D01*
G01*
X196660400Y-58990000D01*
G75*
G02*
X196910000Y-59239600I0J-249600D01*
G01*
X196910000Y-60140400D01*
G75*
G02*
X196660400Y-60390000I-249600J0D01*
G01*
X195959600Y-60390000D01*
G75*
G02*
X195710000Y-60140400I0J249600D01*
G01*
G37*
%TD.AperFunction*%
%TD*%
%TO.P,C4,1*%
%TO.N,GND*%
%TA.AperFunction,SMDPad,CuDef*%
G36*
G01*
X196375000Y-81420000D02*
X197325000Y-81420000D01*
G75*
G02*
X197575000Y-81670000I0J-250000D01*
G01*
X197575000Y-82170000D01*
G75*
G02*
X197325000Y-82420000I-250000J0D01*
G01*
X196375000Y-82420000D01*
G75*
G02*
X196125000Y-82170000I0J250000D01*
G01*
X196125000Y-81670000D01*
G75*
G02*
X196375000Y-81420000I250000J0D01*
G01*
G37*
%TD.AperFunction*%
%TO.P,C4,2*%
%TO.N,+3V3*%
%TA.AperFunction,SMDPad,CuDef*%
G36*
G01*
X196375000Y-83320000D02*
X197325000Y-83320000D01*
G75*
G02*
X197575000Y-83570000I0J-250000D01*
G01*
X197575000Y-84070000D01*
G75*
G02*
X197325000Y-84320000I-250000J0D01*
G01*
X196375000Y-84320000D01*
G75*
G02*
X196125000Y-84070000I0J250000D01*
G01*
X196125000Y-83570000D01*
G75*
G02*
X196375000Y-83320000I250000J0D01*
G01*
G37*
%TD.AperFunction*%
%TD*%
D24*
%TO.N,+3V3*%
X199979200Y-55199200D03*
X196850000Y-86360000D03*
%TO.N,GND*%
X165100000Y-78740000D03*
X166370000Y-72390000D03*
%TO.N,Net-(R1-Pad1)*%
X190500000Y-69850000D03*
%TO.N,Net-(R2-Pad1)*%
X190500000Y-64770000D03*
%TO.N,Net-(R3-Pad1)*%
X191770000Y-59690000D03*
%TO.N,Net-(C5-Pad2)*%
X175260000Y-76200000D03*
%TD*%
D25*
%TO.N,+3V3*%
X198445200Y-51633200D02*
X197739000Y-50927000D01*
X198445200Y-54254400D02*
X198445200Y-51633200D01*
X151973200Y-86360000D02*
X151739600Y-86593600D01*
X154482800Y-86360000D02*
X151973200Y-86360000D01*
X152236799Y-84113999D02*
X152236799Y-81116799D01*
X154482800Y-86360000D02*
X152236799Y-84113999D01*
X195955589Y-49143589D02*
X197739000Y-50927000D01*
X151506000Y-86360000D02*
X151739600Y-86593600D01*
X175773411Y-49143589D02*
X168783000Y-56134000D01*
X195955589Y-49143589D02*
X175773411Y-49143589D01*
X198445200Y-54254400D02*
X199390000Y-55199200D01*
X199390000Y-55199200D02*
X199979200Y-55199200D01*
X196850000Y-86360000D02*
X196850000Y-83820000D01*
X196850000Y-86360000D02*
X190595680Y-86360000D01*
X190595680Y-86360000D02*
X188875680Y-84640000D01*
X158496000Y-56134000D02*
X153670000Y-60960000D01*
X168783000Y-56134000D02*
X158496000Y-56134000D01*
X160743598Y-72610000D02*
X164730000Y-72610000D01*
X152236799Y-62393201D02*
X153670000Y-60960000D01*
X152236799Y-81116799D02*
X152236799Y-62393201D01*
X152236799Y-81116799D02*
X160743598Y-72610000D01*
%TO.N,GND*%
X151790400Y-88442800D02*
X151739600Y-88493600D01*
X150764600Y-68309000D02*
X150689800Y-68309000D01*
X193952199Y-93067801D02*
X195580000Y-91440000D01*
X168783000Y-86614000D02*
X175236801Y-93067801D01*
X196545200Y-90474800D02*
X195580000Y-91440000D01*
X196545200Y-52273200D02*
X195199000Y-50927000D01*
X196545200Y-54254400D02*
X196545200Y-52273200D01*
X165357199Y-90039801D02*
X168783000Y-86614000D01*
X155622601Y-90039801D02*
X165357199Y-90039801D01*
X154482800Y-88900000D02*
X155622601Y-90039801D01*
X152146000Y-88900000D02*
X151739600Y-88493600D01*
X154482800Y-88900000D02*
X152146000Y-88900000D01*
X151739600Y-88493600D02*
X150636790Y-87390790D01*
X150764600Y-74378400D02*
X150764600Y-77104600D01*
X150764600Y-77104600D02*
X150764600Y-68309000D01*
X150764600Y-82059000D02*
X150764600Y-77104600D01*
X203980000Y-65260000D02*
X204470000Y-64770000D01*
X204470000Y-64770000D02*
X204470000Y-59690000D01*
X204470000Y-59690000D02*
X202234800Y-57454800D01*
X155882999Y-88617401D02*
X155882999Y-84147001D01*
X155600400Y-88900000D02*
X155882999Y-88617401D01*
X154482800Y-88900000D02*
X155600400Y-88900000D01*
X157971000Y-82059000D02*
X159064600Y-82059000D01*
X155882999Y-84147001D02*
X157971000Y-82059000D01*
X204470000Y-64770000D02*
X204470000Y-69850000D01*
X193040000Y-78740000D02*
X193670000Y-78740000D01*
X196850000Y-81920000D02*
X197490000Y-81280000D01*
X197490000Y-81280000D02*
X198120000Y-81280000D01*
X198120000Y-88900000D02*
X198120000Y-81280000D01*
X193040000Y-75250000D02*
X192720000Y-74930000D01*
X196850000Y-81920000D02*
X195338880Y-81920000D01*
X193015880Y-75225880D02*
X192720000Y-74930000D01*
X193015880Y-79597000D02*
X193015880Y-75225880D01*
X199390000Y-74930000D02*
X204470000Y-69850000D01*
X192720000Y-74930000D02*
X199390000Y-74930000D01*
X195580000Y-91440000D02*
X198120000Y-88900000D01*
X175236801Y-93067801D02*
X193952199Y-93067801D01*
X195338880Y-81920000D02*
X193015880Y-79597000D01*
X199745600Y-57454800D02*
X196545200Y-54254400D01*
X202234800Y-57454800D02*
X199745600Y-57454800D01*
X150636790Y-82186810D02*
X150764600Y-82059000D01*
X150636790Y-87390790D02*
X150636790Y-82186810D01*
X150764600Y-61965400D02*
X151770000Y-60960000D01*
X150764600Y-68309000D02*
X150764600Y-61965400D01*
X160511000Y-82059000D02*
X163830000Y-78740000D01*
X159064600Y-82059000D02*
X160511000Y-82059000D01*
X163830000Y-78740000D02*
X165100000Y-78740000D01*
X165885600Y-70410000D02*
X164730000Y-70410000D01*
X166370000Y-70894400D02*
X165885600Y-70410000D01*
X166370000Y-72390000D02*
X166370000Y-70894400D01*
X163552199Y-70286589D02*
X163552199Y-66587801D01*
X163675610Y-70410000D02*
X163552199Y-70286589D01*
X163552199Y-66587801D02*
X164230000Y-65910000D01*
X164730000Y-70410000D02*
X163675610Y-70410000D01*
%TO.N,Net-(J5-Pad7)*%
X165460042Y-69310000D02*
X164730000Y-69310000D01*
X169960801Y-72736199D02*
X169960801Y-68268655D01*
X169960801Y-68268655D02*
X169163947Y-67471801D01*
X168783000Y-73914000D02*
X169960801Y-72736199D01*
X166563854Y-69310000D02*
X164730000Y-69310000D01*
X168402053Y-67471801D02*
X166563854Y-69310000D01*
X169163947Y-67471801D02*
X168402053Y-67471801D01*
%TO.N,Net-(J5-Pad5)*%
X163574400Y-71510000D02*
X162560000Y-70495600D01*
X164730000Y-71510000D02*
X163574400Y-71510000D01*
X164405958Y-63754000D02*
X168783000Y-63754000D01*
X162560000Y-65599958D02*
X164405958Y-63754000D01*
X162560000Y-70495600D02*
X162560000Y-65599958D01*
%TO.N,Net-(J5-Pad3)*%
X168402000Y-76454000D02*
X168783000Y-76454000D01*
X163574400Y-73710000D02*
X164730000Y-73710000D01*
X163552199Y-73732201D02*
X163574400Y-73710000D01*
X164328397Y-77253999D02*
X163552199Y-76477801D01*
X167983001Y-77253999D02*
X164328397Y-77253999D01*
X168783000Y-76454000D02*
X167983001Y-77253999D01*
X163552199Y-76477801D02*
X163552199Y-73732201D01*
%TO.N,Net-(J5-Pad2)*%
X171450000Y-74295000D02*
X171450000Y-74295000D01*
X178435000Y-55880000D02*
X178435000Y-67310000D01*
X185420000Y-51435000D02*
X182880000Y-51435000D01*
X185756411Y-51771411D02*
X185420000Y-51435000D01*
X182880000Y-51435000D02*
X178435000Y-55880000D01*
X185756411Y-56143735D02*
X185756411Y-51771411D01*
X183642053Y-57311801D02*
X184588345Y-57311801D01*
X182845199Y-58108655D02*
X183642053Y-57311801D01*
X165011801Y-75091801D02*
X164730000Y-74810000D01*
X178435000Y-67310000D02*
X170653199Y-75091801D01*
X182845199Y-75276199D02*
X182845199Y-58108655D01*
X170653199Y-75091801D02*
X165011801Y-75091801D01*
X184588345Y-57311801D02*
X185756411Y-56143735D01*
X184023000Y-76454000D02*
X182845199Y-75276199D01*
%TO.N,Net-(U1-PadD11)*%
X160792506Y-87589706D02*
X159562800Y-86360000D01*
X168217655Y-77816199D02*
X166370000Y-79663854D01*
X169833801Y-77816199D02*
X168217655Y-77816199D01*
X180005073Y-55868781D02*
X180005073Y-67644927D01*
X162560000Y-87589706D02*
X160792506Y-87589706D01*
X180005073Y-67644927D02*
X169833801Y-77816199D01*
X183457655Y-52416199D02*
X180005073Y-55868781D01*
X185200801Y-53028655D02*
X184588345Y-52416199D01*
X166370000Y-83779706D02*
X162560000Y-87589706D01*
X166370000Y-79663854D02*
X166370000Y-83779706D01*
X185200801Y-54956199D02*
X185200801Y-53028655D01*
X184588345Y-52416199D02*
X183457655Y-52416199D01*
X184023000Y-56134000D02*
X185200801Y-54956199D01*
%TO.N,Net-(U1-PadD12)*%
X167605199Y-80968655D02*
X167605199Y-83397601D01*
X168402053Y-80171801D02*
X167605199Y-80968655D01*
X169348345Y-80171801D02*
X168402053Y-80171801D01*
X167605199Y-83397601D02*
X162102800Y-88900000D01*
X181592573Y-67927573D02*
X169348345Y-80171801D01*
X181592573Y-56024427D02*
X181592573Y-67927573D01*
X184023000Y-53594000D02*
X181592573Y-56024427D01*
%TO.N,Net-(U1-PadD2)*%
X185483500Y-77533500D02*
X184023000Y-78994000D01*
X186690000Y-76327000D02*
X185483500Y-77533500D01*
X188785500Y-74231500D02*
X187388500Y-75628500D01*
X188785500Y-52260500D02*
X188785500Y-74231500D01*
X187388500Y-75628500D02*
X185483500Y-77533500D01*
X190119000Y-50927000D02*
X188785500Y-52260500D01*
%TO.N,Net-(U1-PadD10)*%
X186924427Y-52304427D02*
X186924427Y-57550573D01*
X185801000Y-58674000D02*
X184023000Y-58674000D01*
X189529655Y-49699199D02*
X186924427Y-52304427D01*
X191431199Y-49699199D02*
X189529655Y-49699199D01*
X186924427Y-57550573D02*
X185801000Y-58674000D01*
X192659000Y-50927000D02*
X191431199Y-49699199D01*
%TO.N,Net-(D1-Pad2)*%
X202420000Y-69850000D02*
X199390000Y-69850000D01*
X196310000Y-69850000D02*
X199390000Y-69850000D01*
%TO.N,Net-(D2-Pad2)*%
X199390000Y-64770000D02*
X202420000Y-64770000D01*
X196310000Y-64770000D02*
X199390000Y-64770000D01*
%TO.N,Net-(D3-Pad2)*%
X199390000Y-59690000D02*
X202420000Y-59690000D01*
X196310000Y-59690000D02*
X199390000Y-59690000D01*
%TO.N,Net-(R1-Pad1)*%
X190500000Y-69850000D02*
X194310000Y-69850000D01*
%TO.N,Net-(R2-Pad1)*%
X190500000Y-64770000D02*
X194310000Y-64770000D01*
%TO.N,Net-(R3-Pad1)*%
X191770000Y-59690000D02*
X194310000Y-59690000D01*
%TO.N,Net-(C5-Pad2)*%
X190340000Y-75410000D02*
X190820000Y-74930000D01*
X190340000Y-78740000D02*
X190340000Y-75410000D01*
X189733040Y-78740000D02*
X188876000Y-79597040D01*
X190340000Y-78740000D02*
X189733040Y-78740000D01*
X181956199Y-82896199D02*
X175260000Y-76200000D01*
X188150146Y-79150000D02*
X189590000Y-79150000D01*
X184403947Y-82896199D02*
X188150146Y-79150000D01*
X181956199Y-82896199D02*
X184403947Y-82896199D01*
%TO.N,Net-(U1-Pad1)*%
X190340000Y-91200000D02*
X190580000Y-91440000D01*
%TD*%
M02*
